<?xml version="1.0" encoding="utf-8"?>
<!-- Generator: Adobe Illustrator 17.1.0, SVG Export Plug-In . SVG Version: 6.00 Build 0)  -->
<!DOCTYPE svg PUBLIC "-//W3C//DTD SVG 1.1//EN" "http://www.w3.org/Graphics/SVG/1.1/DTD/svg11.dtd">
<svg version="1.1" id="Calque_1" xmlns="http://www.w3.org/2000/svg" xmlns:xlink="http://www.w3.org/1999/xlink" x="0px" y="0px"
	 viewBox="0 0 50 50" enable-background="new 0 0 50 50" xml:space="preserve">
<g>
	<path d="M1.2,38.9c0-1.7,0.5-3.8,1.4-6.4c1-2.6,2.1-5,3.5-7.3c1.3-2.3,2.8-4.3,4.2-5.9c1.5-1.7,2.7-2.5,3.7-2.5
		c0.2,0,0.5,0.1,0.8,0.2c0.6,0.3,1.3,0.7,1.9,1.4c0.6,0.6,0.9,1.3,0.9,2c0,0.5-0.2,1.1-0.7,1.6c1,0.1,1.8,0.4,2.6,1.1
		c0.8,0.6,1.2,1.4,1.2,2.3c0,0.6-0.2,1.2-0.6,1.7c-0.8,1.1-1.7,2.5-2.6,4.1c-0.9,1.6-1.5,2.8-1.8,3.7c-0.3,1-0.5,1.8-0.5,2.4
		c0,0.6,0.2,0.8,0.5,0.8c0.3,0,0.7-0.2,1.2-0.7c0.1-0.1,0.4-0.4,0.8-0.9c0.4-0.5,1-1.2,1.7-2.1c0.7-0.9,1.3-1.6,1.8-2.2
		c0.8-0.9,2.1-2.4,3.9-4.8c1.9-2.3,3-3.8,3.5-4.4c0.2-0.2,0.3-0.3,0.4-0.3c0.1,0,0.3,0.1,0.4,0.2c0.1,0.2,0.2,0.3,0.3,0.5l0.1,0.2
		c-1.5,2.4-3.9,5.9-7.3,10.5c-1,1.4-1.7,2.4-2.3,3.1c-0.5,0.7-1.2,1.5-1.9,2.5c-0.8,1-1.4,1.6-2,2.1c-0.6,0.4-1.1,0.7-1.5,0.7
		c-0.8,0-1.6-0.4-2.2-1.2c-0.6-0.8-0.9-2-1-3.6c-0.2,0.2-0.6,0.7-1.2,1.3c-0.6,0.6-1,1.1-1.4,1.4c-0.3,0.3-0.7,0.7-1.2,1.1
		c-0.5,0.4-0.9,0.7-1.3,0.9c-0.4,0.2-0.7,0.3-1,0.3c-1,0-2.1-0.4-3.1-1.1C1.7,40.8,1.2,40,1.2,38.9z M4.9,38.4
		c0,0.4,0.2,0.7,0.5,0.7c0.3,0,0.5-0.1,0.8-0.3c1-0.9,2.4-2.7,4.1-5.4c1.7-2.8,2.8-4.7,3.2-5.8c0.1-0.1,0.1-0.3,0.1-0.6
		c0-0.3-0.1-0.5-0.3-0.7c-0.2-0.2-0.4-0.3-0.6-0.3c-0.6,0-1.5,0.8-2.8,2.5c-1.3,1.7-2.5,3.6-3.5,5.6C5.4,36.1,4.9,37.5,4.9,38.4z"/>
	<path d="M19.7,39.7c0-0.2,0.1-0.5,0.2-0.7c6.5-12.3,11.9-23.5,16-33.7c0.4-1,1.2-1.5,2.5-1.5c0.8,0,1.7,0.4,2.6,1.2
		c0.9,0.8,1.4,1.6,1.4,2.5c0,0.5-0.1,0.9-0.3,1.2c-0.7,1.3-2.2,3.7-4.5,7.3c-2.3,3.6-4,6.6-5.3,9.1c1.4-1.7,2.8-3.3,4-4.6
		c0.5-0.6,1.1-1,1.8-1.3c0.7-0.3,1.4-0.5,2.1-0.5c1,0,1.9,0.3,2.6,1c0.7,0.6,1,1.6,1,2.7c0,0.9-0.8,2.1-2.4,3.6
		c-1.6,1.5-3.4,2.9-5.5,4.2c-2,1.3-3.9,2.4-5.6,3.2c0.3,2.7,1.2,4.1,2.7,4.1c1.6,0,4-1.7,7.2-5.2c0.7-0.8,2-2.3,3.8-4.6
		c1.9-2.3,3.1-3.9,3.6-4.6c0.2-0.2,0.3-0.3,0.4-0.3c0.1,0,0.3,0.1,0.4,0.2c0.1,0.2,0.2,0.3,0.3,0.5l0.1,0.3c-2,3.1-4.4,6.6-7.3,10.5
		c-2,2.6-3.6,4.7-5,6.1c-1.1,1.2-2.2,1.8-3.3,1.8c-0.7,0-1.3-0.2-1.9-0.6c-0.6-0.4-1.2-1-1.7-1.7c-0.5-0.7-0.9-1.5-1.3-2.2
		c-0.4-0.8-0.7-1.5-0.9-2.3c-0.9,2.1-1.8,4.4-2.6,6.9c-0.2,0.5-0.4,0.8-0.5,0.9c-0.2,0.2-0.4,0.2-0.8,0.2c-0.6,0-1.3-0.4-2.4-1.1
		C20.2,41.3,19.7,40.5,19.7,39.7z M30.2,31c1.8-1,3.7-2.5,5.8-4.4c2.1-1.9,3.1-3.2,3.1-3.9c0-0.3-0.2-0.4-0.6-0.4
		c-0.3,0-1.2,0.6-2.6,1.9c-1.4,1.3-2.7,2.6-3.9,3.9c-1.2,1.3-1.8,2.1-1.8,2.2V31z"/>
</g>
</svg>
